<?xml version="1.0" encoding="utf-8"?>
<!-- Generator: Adobe Illustrator 23.0.3, SVG Export Plug-In . SVG Version: 6.00 Build 0)  -->
<svg version="1.1" id="Layer_1" xmlns="http://www.w3.org/2000/svg" xmlns:xlink="http://www.w3.org/1999/xlink" x="0px" y="0px"
	 viewBox="0 0 512 512" style="enable-background:new 0 0 512 512;" xml:space="preserve">
<style type="text/css">
	.st0{fill:#F1980E;}
	.st1{fill:#141C28;}
	.st2{fill:#10141D;}
</style>
<title>document-upload-flat</title>
<path class="st0" d="M422.4,153.6V448c0,35.3-28.7,64-64,64H76.8c-35.3,0-64-28.7-64-64V64c0-35.3,28.7-64,64-64h192.1L422.4,153.6z
	"/>
<path class="st1" d="M422.4,153.6h-89.6c-35.3,0-64-28.7-64-64V0h0.1L422.4,153.6z"/>
<path class="st1" d="M217.6,256c0,7.1-5.7,12.8-12.8,12.8H128c-7.1,0-12.8-5.7-12.8-12.8l0,0c0-7.1,5.7-12.8,12.8-12.8c0,0,0,0,0,0
	h76.8C211.9,243.2,217.6,248.9,217.6,256L217.6,256z"/>
<path class="st1" d="M294.4,307.2c0,7.1-5.7,12.8-12.8,12.8H128c-7.1,0-12.8-5.7-12.8-12.8l0,0c0-7.1,5.7-12.8,12.8-12.8
	c0,0,0,0,0,0h153.6C288.7,294.4,294.4,300.1,294.4,307.2L294.4,307.2z"/>
<path class="st1" d="M294,358.4c0,7.1-5.7,12.8-12.8,12.8H128c-7.1,0-12.8-5.7-12.8-12.8l0,0c0-7.1,5.7-12.8,12.8-12.8h153.2
	C288.3,345.6,294,351.3,294,358.4z"/>
<circle class="st2" cx="409.6" cy="422.4" r="89.6"/>
<path class="st0" d="M444.3,413.4l-25.6-25.6l-0.1-0.1c-0.3-0.3-0.6-0.5-0.9-0.8l-0.1-0.1c-0.3-0.2-0.5-0.4-0.8-0.6l-0.3-0.2
	l-0.7-0.4l-0.4-0.2c-0.3-0.2-0.6-0.3-1-0.4l0,0l-0.4-0.1l-0.7-0.3l-0.4-0.1l-0.8-0.2l-0.3-0.1c-0.8-0.1-1.5-0.2-2.3-0.2h-0.1
	c-0.4,0-0.7,0-1,0h-0.2c-0.8,0.1-1.5,0.2-2.3,0.5l-0.2,0.1c-0.3,0.1-0.6,0.2-0.9,0.3l-0.3,0.1c-0.3,0.1-0.7,0.3-1,0.5h-0.1
	c-0.3,0.2-0.7,0.4-1,0.6l-0.2,0.2c-0.2,0.2-0.5,0.3-0.7,0.5l-0.3,0.2c-0.3,0.3-0.6,0.5-0.9,0.8L375,413.3
	c-4.9,5.1-4.8,13.2,0.3,18.1c5,4.8,12.9,4.8,17.8,0l3.8-3.8V448c0,7.1,5.7,12.8,12.8,12.8c7.1,0,12.8-5.7,12.8-12.8v-20.3l3.8,3.8
	c4.9,5.1,13,5.2,18.1,0.3c5.1-4.9,5.2-13,0.3-18.1C444.5,413.5,444.4,413.4,444.3,413.4L444.3,413.4z"/>
</svg>
